<svg xmlns="http://www.w3.org/2000/svg" version="1.1" xmlns:xlink="http://www.w3.org/1999/xlink" xmlns:svgjs="http://svgjs.dev/svgjs" viewBox="0 0 1422 800" opacity="0.47"><defs><linearGradient x1="50%" y1="0%" x2="50%" y2="100%" id="ccchaos-grad"><stop stop-color="hsl(206, 75%, 49%)" stop-opacity="1" offset="0%"></stop><stop stop-color="hsl(212, 72%, 59%)" stop-opacity="1" offset="100%"></stop></linearGradient></defs><g stroke-width="2" stroke="url(#ccchaos-grad)" fill="none" stroke-linecap="round"><path d="M715.72 127.93C725.7 128.01 735.9 126.31 746.3 123.23 756.73 118.9 767.37 114.71 778.18 111.49 789.01 109.46 800.01 109.68 811.09 112.34 822.13 117 833.19 123.77 844.13 132.08 854.89 141.03 865.37 150.24 875.39 159.09 884.99 166.83 893.89 173.41 901.9 178.74 918.93 186.5 928.69 195.58 927.21 201.69 926 207.08 924.6 213.76 923.41 221.61 923.36 230.33 924.31 239.97 926.64 250.29 930.98 261.15 937.1 272.38 945.03 283.8 954.88 295.43 966.08 307.04 978.15 318.53 990.71 330.04 1002.85 341.37 1013.75 352.46 1023.01 363.54 1029.67 374.4 1033.15 385.01 1033.65 395.62 1030.61 406 1024.21 416.11 1015.54 426.22 1004.93 435.8 993.32 444.8 981.92 453.75 971.22 462.06 961.92 469.66 954.83 477.13 949.93 483.81 947.26 489.67 947.96 497.85 958.39 510.64 964.86 516.07 968.8 520.21 971.43 524.64 972.43 529.76 972.12 536.23 969.83 543.97 965.59 553.25 959.87 564.28 952.42 576.92 943.5 590.99 933.55 605.99 922.61 621.42 910.98 636.46 898.93 650.27 886.63 661.96 874.3 670.61 862.02 675.95 849.94 677.38 838.17 674.88 826.66 669.67 815.51 662.07 804.72 653.41 794.21 645.93 783.99 640.49 774.04 638.48 764.28 641.22 754.68 648.49 745.21 659.82 735.82 674.23 726.48 689.64 717.15 703.84 707.85 715.01 698.52 721.07 689.16 720.86 679.8 714.83 670.63 703.63 661.68 689.22 652.74 674.09 644.03 660.19 635.6 649.37 627.2 643.15 619.11 641.67 611.37 644.5 603.69 651.23 596.38 659.84 589.47 668.61 582.59 676.64 576.11 681.88 570.02 683.41 563.89 681.3 558.1 675.02 552.61 665.13 546.96 652.51 541.5 637.93 536.19 622.47 530.56 606.98 524.95 592.3 519.31 579.02 513.24 567.51 507.07 557.9 500.8 550.1 494.09 544.15 487.33 539.51 480.56 535.74 473.54 532.99 466.68 530.37 460.11 527.51 453.61 524.84 447.63 521.46 442.3 517.25 437.37 512.81 433.27 507.41 430.1 501.09 427.47 494.48 425.77 487.05 425.01 478.89 424.64 470.57 425.02 461.65 426.05 452.25 427.09 442.79 428.48 432.93 430.12 422.72 431.32 412.51 432.52 402.21 433.65 391.83 434.21 381.43 434.73 370.9 435.28 360.23 435.44 349.48 435.85 338.53 436.59 327.36 437.35 316.09 438.71 304.58 440.77 292.9 443.18 281.22 446.45 269.48 450.57 257.85 455.22 246.51 460.71 235.57 466.99 225.27 473.7 215.73 481.04 207.19 488.91 199.89 496.97 193.66 505.37 188.81 513.99 185.36 522.54 182.71 531.18 181.09 539.84 180.2 548.25 179.1 556.63 177.89 564.95 176.13 572.97 172.98 580.96 168.63 588.95 162.96 596.66 155.69 604.44 147.44 612.32 138.67 619.99 129.73 627.84 121.55 635.91 114.86 643.85 109.87 652.07 107.27 660.59 107.23 669.04 109.02 677.85 112.64 687.03 117.36 696.17 121.76 705.73 125.52 715.72 127.93" stroke-dasharray="11 9" transform="rotate(0, 711, 400)" opacity="0.90"></path><path d="M722.46 139.33C732.22 139.46 742.14 137.89 752.2 134.97 762.28 130.78 772.5 126.6 782.81 123.2 793.12 120.77 803.48 120.36 813.81 122.22 824.06 126.01 834.18 131.94 844.05 139.55 853.69 148.06 862.91 157.15 871.57 166.22 879.77 174.54 887.2 181.98 893.7 188.33 906.8 198.78 913.25 207.84 912 212.26 911.32 216.11 910.73 221.11 910.57 227.2 911.66 234.08 913.83 241.96 917.36 250.66 922.75 259.96 929.73 269.85 938.26 280.11 948.37 290.72 959.52 301.5 971.24 312.31 983.17 323.26 994.5 334.11 1004.5 344.79 1012.89 355.52 1018.79 366.02 1021.72 376.24 1021.92 386.48 1018.9 396.41 1012.79 405.99 1004.61 415.57 994.62 424.53 983.64 432.86 972.77 441.15 962.39 448.76 953.16 455.67 945.85 462.54 940.44 468.71 937.03 474.21 936.28 482.23 943.96 496.55 949.68 503.88 953.53 509.62 956.43 516 958.04 523.29 958.68 531.9 957.62 541.76 954.82 553 950.71 565.51 944.95 579.14 937.71 593.54 929.42 608.12 920.01 622.37 909.75 635.51 898.93 646.87 887.63 655.73 876.1 661.42 864.43 664.02 852.78 663.13 841.27 659 829.88 652.98 818.73 645.45 807.88 637.68 797.21 631.65 786.83 628.01 776.71 627.82 766.76 632.06 757.01 640.33 747.46 652.02 737.99 666.15 728.65 680.81 719.42 694.05 710.22 704.3 701.08 709.77 692.02 709.46 682.96 703.82 674.17 693.39 665.66 679.86 657.16 665.43 648.94 651.8 641.05 640.68 633.16 633.54 625.61 630.64 618.41 631.82 611.22 636.88 604.39 644.18 597.93 652.27 591.45 660.41 585.31 666.61 579.49 669.89 573.58 670.19 567.93 666.68 562.49 659.62 556.84 649.68 551.31 637.29 545.85 623.35 540.05 608.63 534.22 593.91 528.34 579.87 522.03 566.9 515.63 555.38 509.14 545.41 502.28 537.08 495.4 530.15 488.56 524.33 481.57 519.71 474.79 515.65 468.35 511.8 462.06 508.47 456.32 504.86 451.27 500.77 446.64 496.73 442.86 491.97 439.98 486.45 437.64 480.81 436.21 474.38 435.67 467.2 435.51 459.9 436.06 451.93 437.22 443.33 438.37 434.69 439.85 425.49 441.54 415.77 442.81 406.05 444.04 396.07 445.2 385.86 445.78 375.66 446.3 365.21 446.81 354.54 446.92 343.87 447.22 332.97 447.81 321.88 448.37 310.82 449.46 299.63 451.18 288.42 453.22 277.39 456.05 266.52 459.7 255.97 463.84 245.91 468.81 236.46 474.57 227.85 480.78 220.04 487.67 213.32 495.13 207.83 502.84 203.23 510.96 199.83 519.38 197.54 527.82 195.69 536.41 194.47 545.09 193.56 553.61 192.08 562.13 190.16 570.63 187.45 578.89 183.27 587.12 177.9 595.34 171.32 603.31 163.43 611.31 154.86 619.37 146.11 627.24 137.5 635.23 129.91 643.38 123.96 651.4 119.75 659.64 117.87 668.14 118.39 676.55 120.55 685.28 124.33 694.32 129.04 703.33 133.34 712.71 136.99 722.46 139.33" stroke-dasharray="9 8" transform="rotate(4.04, 711, 400)" opacity="0.24"></path><path d="M728.02 150.73C737.51 150.9 747.08 149.46 756.73 146.72 766.37 142.69 776.06 138.56 785.76 135.03 795.42 132.26 805.02 131.28 814.47 132.38 823.81 135.29 832.9 140.32 841.63 147.12 850.1 155.01 858.05 163.77 865.36 172.83 872.24 181.5 878.32 189.6 883.48 196.83 893.47 210.31 898.07 221.1 897.45 224.54 897.66 229.12 902.65 243.79 908.92 253.88 915.19 261.47 922.86 269.75 931.8 278.57 942.02 287.79 952.98 297.35 964.23 307.1 975.48 317.06 985.98 327.07 995.1 337 1002.63 347.03 1007.81 356.9 1010.24 366.54 1010.18 376.21 1007.18 385.59 1001.36 394.63 993.67 403.67 984.28 412.13 973.93 419.98 963.58 427.82 953.57 435.06 944.48 441.71 937.02 448.39 931.2 454.55 927.15 460.27 925.22 466.15 924.9 471.78 925.92 477.3 928.41 483.28 931.5 489.48 934.74 496.12 938.29 503.61 941.22 511.89 943.19 521.15 944.49 531.49 944.39 542.9 942.78 555.33 940.08 568.49 935.85 582.19 930.19 596 923.54 609.34 915.71 621.72 906.92 632.45 897.49 641.12 887.42 647.13 876.93 650.07 866.16 650.32 855.23 647.63 844.28 642.43 833.31 636.16 822.46 629.15 811.8 622.57 801.25 618.15 790.91 616.3 780.82 617.81 770.85 623.37 761.09 632.42 751.55 644.3 742.09 658.03 732.8 671.9 723.69 684.17 714.6 693.55 705.65 698.45 696.85 698.05 688.04 692.8 679.57 683.11 671.43 670.44 663.29 656.74 655.47 643.47 647.99 632.19 640.5 624.3 633.35 620.15 626.55 619.76 619.72 623.15 613.22 629 607.05 636.12 600.81 643.93 594.85 650.6 589.16 655.13 583.32 657.38 577.66 656.34 572.16 651.99 566.4 644.84 560.71 634.98 555.03 623.12 549 609.91 542.93 596 536.78 582.06 530.25 568.52 523.64 555.85 516.97 544.32 510.01 534.04 503.07 525.03 496.24 517.17 489.33 510.5 482.69 504.64 476.45 499.31 470.42 494.69 464.98 490.17 460.24 485.53 455.95 481.15 452.49 476.36 449.93 471.05 447.89 465.75 446.73 459.82 446.42 453.23 446.45 446.59 447.15 439.28 448.42 431.33 449.67 423.35 451.22 414.75 452.97 405.56 454.28 396.37 455.56 386.84 456.74 377.01 457.35 367.2 457.88 357.11 458.37 346.81 458.45 336.56 458.68 326.13 459.14 315.6 459.52 305.21 460.38 294.83 461.8 284.61 463.47 274.69 465.88 265.11 469.05 256.05 472.68 247.56 477.12 239.81 482.33 232.99 487.99 226.92 494.35 221.89 501.32 217.96 508.59 214.67 516.33 212.3 524.43 210.73 532.64 209.2 541.07 207.93 549.64 206.6 558.15 204.43 566.72 201.58 575.3 197.81 583.7 192.6 592.11 186.29 600.49 178.98 608.68 170.66 616.89 161.97 625.12 153.42 633.18 145.31 641.32 138.41 649.57 133.26 657.7 129.84 666 128.66 674.48 129.7 682.9 132.19 691.56 136.08 700.47 140.75 709.36 144.94 718.54 148.46 728.02 150.73" stroke-dasharray="3 7" transform="rotate(8.08, 711, 400)" opacity="0.58"></path><path d="M731.82 162.13C740.98 162.35 750.15 161.04 759.3 158.48 768.44 154.64 777.53 150.6 786.51 146.99 795.45 143.94 804.21 142.45 812.73 142.84 821.11 144.88 829.15 148.98 836.73 154.88 844.06 162.02 850.82 170.24 856.89 179.06 862.59 187.82 867.52 196.33 871.58 204.25 876.63 214.09 882.07 227.48 882.89 231.72 884.4 238.09 893.54 252.53 901.25 260.34 908.25 266.29 916.41 272.96 925.6 280.25 935.77 287.92 946.41 296.06 957.11 304.53 967.63 313.23 977.28 322.12 985.53 331.08 992.25 340.16 996.76 349.2 998.72 358.12 998.43 367.08 995.46 375.85 989.94 384.38 982.71 392.91 973.91 400.97 964.17 408.56 954.36 416.16 944.74 423.32 935.84 430.09 928.32 436.93 922.18 443.49 917.59 449.85 914.9 456.45 913.7 463.07 913.78 469.84 915.32 477.12 917.57 484.82 920.15 493.12 923.24 502.17 925.98 512.01 928.06 522.69 929.76 534.13 930.33 546.31 929.65 559.05 928.12 571.98 925.21 584.9 920.99 597.32 915.86 608.78 909.57 618.82 902.27 626.88 894.3 632.83 885.58 636.18 876.3 636.73 866.65 635.13 856.68 631.21 846.53 625.52 836.27 619.48 825.98 613.38 815.77 608.23 805.57 605.48 795.52 605.37 785.65 608.43 775.85 615.1 766.24 624.74 756.84 636.63 747.5 649.87 738.35 662.91 729.39 674.22 720.47 682.75 711.72 687.13 703.15 686.65 694.58 681.77 686.37 672.78 678.53 660.97 670.67 648.02 663.15 635.19 655.98 623.89 648.78 615.4 641.91 610.16 635.36 608.33 628.75 610.08 622.44 614.39 616.41 620.32 610.27 627.44 604.37 634.11 598.66 639.39 592.77 643.09 587.01 644.09 581.34 642.18 575.41 637.73 569.49 630.54 563.55 621.1 557.29 609.96 550.96 597.58 544.57 584.56 537.85 571.32 531.08 558.36 524.3 546.03 517.29 534.47 510.37 523.9 503.62 514.34 496.87 505.78 490.44 498.11 484.46 491.13 478.74 484.91 473.63 479.08 469.24 473.41 465.32 468.15 462.21 462.78 459.98 457.14 458.24 451.65 457.33 445.73 457.24 439.33 457.45 432.93 458.29 425.99 459.67 418.48 461 410.96 462.61 402.86 464.39 394.2 465.75 385.55 467.07 376.56 468.27 367.3 468.92 358.07 469.47 348.61 469.97 339.01 470.04 329.49 470.21 319.9 470.58 310.34 470.81 300.98 471.46 291.79 472.61 282.91 473.95 274.39 475.96 266.35 478.68 258.96 481.8 252.12 485.69 246.06 490.33 240.92 495.41 236.36 501.2 232.72 507.6 229.96 514.35 227.53 521.61 225.73 529.29 224.37 537.14 222.71 545.28 220.99 553.63 218.92 561.99 215.84 570.47 211.95 579.01 207.09 587.45 200.93 595.92 193.84 604.38 185.99 612.71 177.46 621.05 168.87 629.39 160.71 637.6 153.23 645.86 147.11 654.19 142.79 662.41 140.17 670.75 139.65 679.21 141.16 687.62 143.92 696.19 147.89 704.95 152.49 713.69 156.55 722.65 159.94 731.82 162.13" stroke-dasharray="1 8" transform="rotate(12.12, 711, 400)" opacity="0.61"></path><path d="M733.45 173.54C742.25 173.79 750.96 172.62 759.56 170.25 768.14 166.61 776.57 162.69 784.81 159.06 792.98 155.8 800.9 153.87 808.48 153.6 815.92 154.82 822.94 157.98 829.46 162.94 835.75 169.2 841.45 176.71 846.47 185.05 851.2 193.65 855.21 202.29 858.46 210.64 862.56 221.68 867.24 238.23 868.37 243.92 869.71 247.92 874.18 254.95 878.46 259.04 882.74 262.02 887.99 265.63 894.3 269.92 901.84 274.5 910.32 279.77 919.57 285.65 929.55 291.84 939.77 298.57 949.84 305.72 959.59 313.09 968.4 320.78 975.8 328.67 981.75 336.68 985.62 344.8 987.16 352.95 986.67 361.13 983.75 369.28 978.51 377.35 971.74 385.42 963.51 393.21 954.37 400.71 945.1 408.24 935.9 415.54 927.24 422.66 919.73 429.89 913.37 437.05 908.33 444.26 904.98 451.73 902.98 459.41 902.19 467.42 902.8 475.9 904.18 484.88 906.03 494.47 908.52 504.61 910.9 515.39 912.87 526.78 914.71 538.53 915.69 550.63 915.68 562.82 915.03 574.73 913.21 586.13 910.21 596.56 906.45 605.73 901.57 613.21 895.69 618.61 889.17 622.03 881.84 623.07 873.86 621.74 865.46 618.84 856.61 614.28 847.45 608.63 838.1 603.25 828.59 598.34 819.04 594.77 809.44 593.7 799.88 595.22 790.43 599.65 780.99 607.2 771.69 617.23 762.57 628.98 753.48 641.64 744.56 653.81 735.83 664.19 727.13 671.91 718.6 675.79 710.26 675.25 701.92 670.72 693.95 662.42 686.33 651.44 678.7 639.26 671.41 626.94 664.44 615.73 657.43 606.82 650.72 600.67 644.31 597.55 637.81 597.74 631.57 600.48 625.56 605.05 619.41 611.19 613.45 617.45 607.63 622.98 601.61 627.6 595.67 630.15 589.78 630.29 583.63 628.28 577.47 623.69 571.28 616.78 564.79 608.06 558.25 597.72 551.66 586.28 544.82 574.13 537.95 561.72 531.13 549.42 524.17 537.4 517.34 525.99 510.75 515.3 504.22 505.33 498.08 496.15 492.41 487.68 487.05 479.9 482.33 472.65 478.32 465.76 474.78 459.34 472.03 453.04 470.13 446.73 468.69 440.64 468.03 434.36 468.14 427.8 468.52 421.31 469.49 414.45 470.95 407.18 472.35 399.91 474 392.19 475.82 384.04 477.22 375.89 478.56 367.5 479.8 358.95 480.49 350.42 481.07 341.79 481.59 333.11 481.66 324.55 481.81 316.05 482.11 307.72 482.24 299.6 482.71 291.79 483.62 284.41 484.66 277.38 486.31 270.92 488.59 265.14 492.9 257.51 505.71 246.67 514.09 243.24 520.25 241.19 526.95 239.46 534.1 237.84 541.49 235.68 549.22 233.19 557.21 230.15 565.29 226.04 573.54 221.09 581.9 215.24 590.24 208.29 598.64 200.62 607.07 192.46 615.42 183.96 623.78 175.67 632.15 168.07 640.42 161.33 648.73 156.06 657.06 152.59 665.32 150.73 673.64 150.83 682.04 152.76 690.39 155.75 698.85 159.76 707.41 164.26 715.96 168.17 724.65 171.42 733.45 173.54" stroke-dasharray="2 3" transform="rotate(16.16, 711, 400)" opacity="0.58"></path><path d="M732.75 184.94C741.14 185.23 749.35 184.19 757.37 182.02 765.36 178.6 773.13 174.84 780.61 171.24 788.04 167.84 795.13 165.54 801.83 164.69 808.4 165.14 814.51 167.39 820.11 171.37 825.51 176.67 830.34 183.33 834.54 190.99 838.53 199.17 841.89 207.67 844.62 216.17 847.19 224.24 849.21 231.81 850.74 238.74 852.97 247.39 857.07 260.08 859.84 264.8 864.23 268.64 878.08 276.88 887.96 281.96 895.86 285.62 904.48 289.85 913.65 294.64 923.3 299.62 933 305.14 942.4 311.13 951.35 317.28 959.32 323.83 965.9 330.72 971.12 337.68 974.41 344.9 975.56 352.31 974.9 359.74 972.04 367.32 967.09 374.99 960.76 382.67 953.09 390.26 944.53 397.78 935.81 405.33 927.05 412.86 918.67 420.41 911.24 428.08 904.74 435.88 899.36 443.88 895.46 452.12 892.75 460.69 891.15 469.66 890.88 478.97 891.39 488.77 892.46 499.05 894.27 509.63 896.13 520.63 897.81 531.91 899.56 543.19 900.71 554.43 901.09 565.32 901.06 575.58 900.06 584.94 898.05 593.04 893.61 602.24 879.06 608.52 869.38 605.5 862.27 601.89 854.62 597.22 846.56 592.09 838.26 587.7 829.7 584.2 820.98 582.27 812.15 582.83 803.26 585.82 794.39 591.4 785.5 599.64 776.66 609.86 767.94 621.34 759.23 633.33 750.65 644.62 742.22 654.08 733.81 661.03 725.54 664.45 717.44 663.85 709.35 659.65 701.59 652.01 694.17 641.85 686.73 630.46 679.59 618.7 672.75 607.7 665.86 598.53 659.24 591.65 652.86 587.39 646.4 586.14 640.13 587.33 634.05 590.46 627.83 595.39 621.74 600.9 615.74 606.23 609.55 611.25 603.41 614.83 597.29 616.53 590.92 616.56 584.54 614.31 578.12 609.87 571.46 603.66 564.77 595.66 558.06 586.26 551.16 575.83 544.29 564.68 537.52 553.19 530.68 541.54 524.04 530.07 517.69 518.99 511.46 508.28 505.66 498.15 500.37 488.61 495.41 479.6 491.1 471.13 487.5 463.12 484.35 455.53 481.97 448.23 480.39 441.11 479.24 434.24 478.84 427.39 479.13 420.47 479.67 413.66 480.74 406.68 482.27 399.48 483.73 392.31 485.41 384.87 487.24 377.17 488.67 369.47 490.04 361.7 491.31 353.9 492.05 346.13 492.68 338.4 493.22 330.77 493.32 323.24 493.47 315.92 493.72 308.88 493.95 298.82 496.27 281.46 498.81 274.49 502.4 268.6 513.47 260.1 520.9 257.06 526.42 254.91 532.5 252.81 539.05 250.55 545.88 247.59 553.09 244.13 560.6 240.03 568.27 234.89 576.15 228.97 584.2 222.28 592.29 214.74 600.48 206.74 608.73 198.53 616.95 190.28 625.22 182.5 633.49 175.6 641.71 169.7 649.95 165.31 658.2 162.68 666.4 161.56 674.64 162.22 682.89 164.51 691.12 167.67 699.39 171.68 707.7 176.06 716.01 179.81 724.36 182.9 732.75 184.94" stroke-dasharray="8 2" transform="rotate(20.200000000000003, 711, 400)" opacity="1.00"></path><path d="M729.79 196.34C737.73 196.67 745.42 195.76 752.85 193.79 760.26 190.61 767.37 187.04 774.15 183.51 780.87 180.03 787.22 177.46 793.14 176.11 798.96 175.86 804.32 177.24 809.16 180.25 813.87 184.54 818.05 190.24 821.68 197.07 825.18 204.59 828.16 212.68 830.63 221.04 833.08 229.25 835.13 237.24 836.85 244.8 839.63 254.8 845.73 270.58 849.8 276.67 853.41 279.99 857.61 283.14 862.49 286.27 868.31 289.09 874.87 292.1 882.15 295.41 890.22 298.65 898.82 302.31 907.76 306.43 916.98 310.6 926.08 315.25 934.74 320.38 942.9 325.58 950.04 331.23 955.84 337.28 960.37 343.37 963.12 349.82 963.93 356.6 963.12 363.38 960.34 370.45 955.67 377.79 949.77 385.13 942.63 392.58 934.65 400.12 926.47 407.7 918.17 415.43 910.12 423.34 902.82 431.34 896.28 439.6 890.65 448.14 886.3 456.86 882.98 465.93 880.67 475.36 879.58 484.99 879.26 494.98 879.53 505.26 880.59 515.59 881.85 526.06 883.09 536.49 884.56 546.61 885.65 556.34 886.19 565.4 884.02 584.62 870.63 592.87 862.79 588.52 856.93 584.74 850.48 580.46 843.56 576.22 836.38 573.09 828.84 571.1 821.06 570.8 813.13 572.86 805.04 577.14 796.88 583.65 788.66 592.36 780.42 602.59 772.22 613.66 764 624.93 755.85 635.32 747.79 643.89 739.74 650.11 731.79 653.09 723.96 652.44 716.13 648.57 708.6 641.56 701.35 632.2 694.07 621.59 687.06 610.46 680.3 599.76 673.49 590.48 666.9 583.05 660.5 577.85 654.02 575.3 647.69 575.03 641.49 576.69 635.16 580.26 628.91 584.74 622.73 589.49 616.37 594.44 610.03 598.51 603.7 601.26 597.17 602.83 590.61 602.52 584.04 600.28 577.28 596.47 570.52 590.86 563.78 583.73 556.93 575.41 550.16 566.06 543.53 556.01 536.91 545.46 530.55 534.7 524.51 523.96 518.65 513.27 513.25 502.88 508.38 492.89 503.87 483.2 499.98 473.95 496.8 465.15 494.06 456.66 492.05 448.53 490.79 440.7 489.92 433.08 489.74 425.65 490.21 418.34 490.88 411.13 492.05 403.94 493.63 396.74 495.12 389.56 496.83 382.32 498.67 375.01 500.12 367.7 501.52 360.5 502.8 353.43 503.59 346.39 504.27 339.52 504.85 332.9 505.09 323.24 505.55 305.93 506.22 298.54 507.3 291.93 512.28 281.58 516.41 277.65 521.67 273.93 535.7 266.49 544.3 261.94 550.48 258.01 557.08 253.51 564.02 248.36 571.15 242.31 578.55 235.59 586.15 228.31 593.84 220.45 601.68 212.37 609.61 204.37 617.57 196.58 625.59 189.48 633.63 183.4 641.67 178.39 649.73 174.9 657.77 173.09 665.81 172.65 673.85 173.81 681.87 176.4 689.88 179.67 697.9 183.65 705.89 187.88 713.88 191.45 721.86 194.39 729.79 196.34" stroke-dasharray="8 10" transform="rotate(24.24, 711, 400)" opacity="0.78"></path><path d="M724.89 207.74C732.34 208.1 739.51 207.33 746.37 205.55 753.21 202.63 759.72 199.27 765.86 195.86 774.81 190.99 790.54 187.27 797.22 189.64 801.44 192.92 805.2 197.59 808.49 203.46 811.75 210.14 814.59 217.58 817.06 225.5 819.6 233.55 821.88 241.63 823.99 249.52 826.36 256.97 828.72 263.99 831.18 270.51 834.15 276.35 837.42 281.69 841.1 286.59 845.49 290.87 850.44 294.85 855.99 298.67 862.32 302.06 869.26 305.46 876.75 308.98 884.83 312.29 893.25 315.85 901.83 319.74 910.52 323.56 918.96 327.77 926.87 332.39 934.22 337.01 940.56 342.06 945.62 347.53 949.51 353 951.77 358.89 952.26 365.17 951.33 371.45 948.64 378.12 944.24 385.17 938.76 392.23 932.14 399.51 924.73 407.02 917.09 414.55 909.26 422.33 901.57 430.37 894.47 438.48 887.95 446.88 882.18 455.57 877.48 464.35 873.66 473.42 870.73 482.75 868.89 492.11 867.8 501.64 867.29 511.25 867.59 520.69 868.17 530 868.86 538.98 869.91 547.45 870.75 555.28 871.23 562.22 865.27 575.53 846.78 566.1 838.3 561.3 832.22 559.57 825.73 559.13 818.92 560.36 811.94 563.76 804.73 569.11 797.36 576.33 789.91 585.29 782.35 595.37 774.75 605.92 767.12 616.42 759.48 625.92 751.86 633.62 744.25 639.14 736.66 641.73 729.14 641.04 721.61 637.48 714.31 631.08 707.23 622.48 700.14 612.67 693.25 602.19 686.55 591.89 679.81 582.64 673.23 574.84 666.8 568.89 660.28 565.21 653.88 563.59 647.57 563.82 641.14 565.96 634.76 569.23 628.42 573.09 621.93 577.55 615.45 581.63 608.97 584.89 602.34 587.46 595.7 588.6 589.07 588.15 582.31 586.44 575.58 583.06 568.92 578.18 562.22 572.13 555.64 564.87 549.26 556.68 542.96 547.79 536.94 538.35 531.29 528.63 525.87 518.68 520.92 508.73 516.51 498.94 512.46 489.22 509.03 479.78 506.27 470.68 503.93 461.75 502.27 453.16 501.32 444.89 500.72 436.79 500.75 428.94 501.38 421.33 502.17 413.81 503.41 406.46 505.03 399.25 506.54 392.07 508.26 384.99 510.09 378.01 511.56 371.03 512.97 364.32 514.29 357.89 515.49 348.4 516.81 331.15 517.16 323.54 517.91 310.56 522.54 295.37 525.96 291.41 530.36 287.18 542.44 277.61 550.01 271.58 555.51 266.66 561.43 261.19 567.72 255.13 574.22 248.35 581.02 241.1 588.06 233.49 595.23 225.59 602.59 217.72 610.06 210.16 617.61 203.02 625.25 196.73 632.93 191.55 640.64 187.48 648.38 184.87 656.11 183.83 663.86 184.01 671.59 185.6 679.29 188.43 686.99 191.77 694.66 195.66 702.27 199.72 709.88 203.11 717.43 205.88 724.89 207.74" stroke-dasharray="11 9" transform="rotate(28.28, 711, 400)" opacity="0.90"></path><path d="M718.54 219.15C725.5 219.53 732.15 218.89 738.48 217.32 744.79 214.65 750.76 211.53 756.37 208.28 764.54 203.4 778.86 198.45 784.99 199.6 788.92 201.89 792.46 205.51 795.64 210.34 798.85 216.05 801.76 222.64 804.43 229.88 807.23 237.46 809.9 245.29 812.51 253.18 815.43 260.87 818.43 268.33 821.62 275.46 825.3 282.1 829.31 288.31 833.72 294.13 838.76 299.38 844.29 304.3 850.33 308.95 856.99 313.16 864.12 317.24 871.64 321.3 879.57 325.06 887.68 328.93 895.79 332.98 903.87 336.87 911.61 341.04 918.75 345.52 925.3 349.94 930.87 354.72 935.24 359.89 938.53 365.03 940.34 370.57 940.56 376.52 939.54 382.46 936.94 388.82 932.82 395.61 927.73 402.4 921.62 409.47 914.76 416.81 907.65 424.16 900.31 431.79 893.01 439.67 886.16 447.58 879.75 455.75 873.91 464.14 868.97 472.53 864.76 481.09 861.31 489.75 858.83 498.31 857.03 506.85 855.79 515.23 855.34 523.31 855.22 531.03 855.3 538.2 852.13 559.03 837.83 550.46 830.84 547.56 825.78 547.28 820.29 548.33 814.42 550.95 808.39 555.49 802.07 561.68 795.51 569.36 788.87 578.38 782.04 588.15 775.09 598.1 768.11 607.78 761.04 616.39 753.91 623.27 746.78 628.14 739.61 630.35 732.43 629.64 725.24 626.37 718.21 620.55 711.33 612.7 704.44 603.67 697.69 593.88 691.07 584.06 684.42 574.98 677.87 566.98 671.43 560.45 664.91 555.85 658.47 553.03 652.08 551.92 645.6 552.65 639.14 554.59 632.71 557.36 626.17 560.99 619.63 564.65 613.1 567.93 606.47 570.97 599.86 573.01 593.27 573.85 586.63 573.78 580.05 572.31 573.59 569.46 567.14 565.58 560.86 560.46 554.82 554.31 548.92 547.37 543.33 539.68 538.13 531.46 533.19 522.83 528.73 513.93 524.8 504.95 521.23 495.84 518.26 486.81 515.93 477.96 513.98 469.15 512.67 460.57 512.01 452.27 511.65 444.04 511.87 436.09 512.63 428.41 513.52 420.79 514.82 413.4 516.46 406.26 517.99 399.14 519.7 392.23 521.51 385.55 522.99 378.86 524.42 372.54 525.75 366.6 527.03 357.86 528.53 342.34 528.94 335.58 529.55 323.76 533.18 308.76 535.96 304.14 539.57 298.94 549.79 286.71 556.33 279.22 561.11 273.42 566.33 267.14 571.91 260.42 577.72 253.2 583.85 245.69 590.24 238.07 596.79 230.4 603.55 222.99 610.46 216.08 617.48 209.76 624.61 204.37 631.8 200.15 639.06 197 646.36 195.24 653.66 194.91 661 195.63 668.32 197.59 675.6 200.57 682.91 203.93 690.15 207.71 697.32 211.57 704.5 214.77 711.58 217.38 718.54 219.15" stroke-dasharray="10 4" transform="rotate(32.32, 711, 400)" opacity="0.14"></path><path d="M711.41 230.55C717.87 230.96 724.03 230.44 729.88 229.07 735.72 226.66 741.23 223.81 746.4 220.76 753.95 215.97 767.33 210.07 773.17 210.14 778.72 212.81 788.61 225.32 793.16 234.47 796.34 241.32 799.48 248.61 802.64 256.15 806.13 263.73 809.77 271.28 813.62 278.69 817.93 285.81 822.57 292.64 827.57 299.15 833.1 305.24 839.04 311.01 845.37 316.5 852.19 321.57 859.33 326.46 866.71 331.21 874.34 335.66 882.02 340.09 889.57 344.57 897 348.86 904 353.29 910.37 357.93 916.15 362.46 920.99 367.26 924.7 372.36 928.14 380.11 926.49 397.37 921.39 406.95 916.7 413.47 911.07 420.25 904.74 427.26 898.17 434.27 891.32 441.51 884.44 448.94 877.89 456.36 871.63 463.94 865.82 471.61 860.74 479.22 856.25 486.85 852.39 494.41 849.37 501.78 846.95 508.94 845.05 515.77 838.63 542.84 827.11 536.01 821.38 535.17 817.22 536.3 812.61 538.7 807.61 542.52 802.47 547.97 796.99 554.75 791.22 562.67 785.38 571.57 779.29 580.9 773.01 590.17 766.7 599.02 760.22 606.76 753.62 612.84 747.01 617.1 740.29 618.97 733.49 618.24 726.69 615.25 719.97 609.98 713.33 602.85 706.68 594.59 700.11 585.52 693.62 576.25 687.1 567.44 680.64 559.41 674.23 552.51 667.78 547.17 661.36 543.35 654.97 541.03 648.52 540.4 642.08 541 635.65 542.54 629.16 545.11 622.67 548.01 616.21 550.88 609.7 553.89 603.22 556.3 596.82 557.9 590.4 558.95 584.09 558.9 577.93 557.71 571.84 555.7 565.96 552.55 560.35 548.36 554.91 543.44 549.81 537.66 545.12 531.21 540.69 524.25 536.74 516.83 533.32 509.11 530.24 501.14 527.72 493.05 525.81 484.95 524.23 476.78 523.24 468.7 522.85 460.78 522.72 452.87 523.1 445.16 523.97 437.69 524.95 430.25 526.28 423.04 527.92 416.1 529.45 409.17 531.15 402.48 532.94 396.07 535.13 386.64 538.55 369.79 539.73 362.32 540.25 355.19 540.9 342.59 541.31 336.98 541.75 331.4 544.2 320.54 546.43 314.87 549.35 308.46 557.83 293.56 563.38 284.81 567.46 278.35 571.96 271.55 576.82 264.46 581.9 257.1 587.31 249.67 593 242.33 598.85 235.16 604.94 228.42 611.21 222.34 617.59 216.94 624.11 212.52 630.73 209.27 637.43 207.01 644.18 206.03 650.96 206.34 657.79 207.52 664.61 209.75 671.4 212.84 678.22 216.16 684.98 219.8 691.66 223.44 698.35 226.43 704.95 228.87 711.41 230.55" stroke-dasharray="6 7" transform="rotate(36.36, 711, 400)" opacity="0.11"></path><path d="M704.24 241.95C713.07 242.18 729.33 237.38 736.73 233.27 746.39 226.86 754.92 222.4 762.4 221.28 770.06 223.23 777.03 229.59 783.61 239.6 791.01 251.91 798.72 266 807.16 280.62 817.2 294.89 828.47 308.44 840.96 321.02 854.81 332.33 869.18 342.94 883.12 353.19 896.26 362.67 906.99 372.46 914 382.9 916.77 390.73 914.74 407.67 909.97 416.86 905.65 423.09 900.49 429.48 894.68 436.01 888.62 442.54 882.27 449.19 875.83 455.91 863.78 469.25 852.91 482.56 843.92 495.18 837.77 506.92 833.5 517.01 830.63 524.56 826.96 529.91 810.56 525.13 798.76 535 789.92 548.34 779.74 564.94 768.52 582.11 762.85 590.11 756.98 596.99 750.92 602.33 744.85 606.02 738.61 607.58 732.23 606.83 725.84 604.12 719.47 599.36 713.12 592.93 706.77 585.43 700.43 577.09 694.13 568.42 681.48 552.23 668.86 539.28 656.32 531.15 643.65 528.91 630.99 530.62 618.48 534.3 605.94 539.55 593.71 543.01 582.13 543.4 570.97 541.59 560.9 535.93 552.35 527.08 544.84 516.26 539.27 503.46 535.91 489.69 533.73 475.3 533.61 460.84 535.41 446.91 536.44 439.92 537.79 433.11 539.43 426.51 540.94 419.92 542.6 413.54 544.36 407.4 546.54 398.37 550.05 382.11 551.31 374.81 551.85 365.16 552.4 356.56 553.22 348.73 553.49 340.2 554.78 331.76 557.34 322.89 560.31 312.55 564.97 301.14 571.22 288.54 578.27 274.67 586.84 260.34 596.62 246.59 607.02 234.13 618.33 224.5 630.19 218.95 642.38 216.97 654.85 219.33 667.31 225.22 673.58 228.45 679.82 231.91 685.99 235.32 692.16 238.1 698.26 240.37 704.24 241.95" stroke-dasharray="9 6" transform="rotate(40.400000000000006, 711, 400)" opacity="1.00"></path><path d="M697.77 253.35C708.8 253.2 718.92 250.35 728.1 245.81 737.29 239.74 745.64 235.05 753.24 233.02 761.11 233.4 768.59 237.72 775.96 245.56 784.14 255.81 792.78 268.26 802.13 281.85 812.79 295.75 824.44 309.52 836.92 322.7 850.27 335.1 863.72 346.82 876.39 358.03 888.06 368.59 897.33 379.11 903.15 389.85 905.97 400.38 904.46 411.49 898.54 423.28 890.12 435.07 879.2 447 867.18 458.78 855.77 470.37 845.11 481.38 835.87 491.23 826.32 503.81 816.57 515.73 813.57 514.57 810.72 512.08 798.41 515.52 788.3 528.27 780.75 542.12 771.87 558.14 761.86 573.89 751.72 587.3 740.63 595.18 728.75 595.43 716.88 588.95 704.83 576.33 692.76 560.56 680.67 545.07 668.5 531.76 656.37 522.25 644.2 517.73 632.07 516.97 620.16 518.62 608.37 522.54 597 525.85 586.37 527.26 576.29 527.5 567.33 524.63 559.9 518.86 553.47 511.41 548.85 501.73 546.28 490.62 544.7 478.75 544.96 466.27 546.92 453.78 549.05 441.17 552.13 428.88 555.79 417.2 558.36 405.51 560.76 394.93 562.86 385.33 563.6 375.52 564.31 366.36 565.21 357.53 565.46 348.01 566.54 338.24 568.65 327.88 570.97 316.36 574.74 303.93 579.92 290.76 585.71 277.04 592.92 263.5 601.31 251.18 610.25 240.56 620.13 232.95 630.64 229.24 641.46 228.62 652.67 231.72 663.97 237.69 675.39 243.71 686.73 249.45 697.77 253.35" stroke-dasharray="4 8" transform="rotate(44.44, 711, 400)" opacity="0.78"></path><path d="M692.67 264.76C702.83 264.74 712.33 262.34 721.14 258.36 729.99 252.72 738.28 248 746.1 245.31 754.22 244.41 762.22 246.88 770.29 252.59 779.1 260.6 788.41 271.05 798.34 283.04 809.28 295.84 820.94 309.06 833.07 322.13 845.66 334.88 858 347.17 869.32 358.94 879.53 370.26 887.42 381.32 892.16 392.23 894.29 402.98 892.63 413.86 887.12 424.89 879.46 435.92 869.54 446.56 858.48 456.57 847.77 466.38 837.47 475.19 828.19 482.56 817.72 491.69 804.98 498.83 800.76 497.69 797.24 497.24 785.71 507.33 776.81 522.2 770.25 536.12 762.44 551.26 753.49 565.5 744.45 577.29 734.39 584.01 723.44 584.03 712.49 578.25 701.23 566.98 689.84 552.62 678.46 538.03 666.94 524.73 655.45 514.25 644 507.85 632.63 504.8 621.56 504.28 610.72 506.37 600.38 508.73 590.87 510.2 581.94 511.41 574.16 510.36 567.86 506.9 562.47 502.25 558.77 495.4 556.9 486.88 555.86 477.63 556.45 467.34 558.53 456.55 560.68 445.57 563.68 434.45 567.21 423.45 569.76 412.44 572.19 402.05 574.37 392.2 575.3 382.17 576.19 372.36 577.21 362.54 577.53 352.15 578.5 341.33 580.3 329.93 582.13 317.78 585.18 305.04 589.45 292.04 594.15 279.12 600.14 266.93 607.23 256.41 614.77 247.8 623.26 242.18 632.43 240.16 641.88 240.7 651.8 244.33 661.95 250.23 672.19 255.89 682.5 261.15 692.67 264.76" stroke-dasharray="0 11" transform="rotate(48.48, 711, 400)" opacity="0.25"></path><path d="M689.47 276.16C698.83 276.27 707.78 274.31 716.29 270.89 724.86 265.79 733.13 261.21 741.18 258.12 749.52 256.23 757.92 257.13 766.51 260.87 775.71 266.65 785.39 274.89 795.56 284.9 806.43 296.02 817.76 307.99 829.23 320.22 840.84 332.56 851.95 344.71 861.87 356.45 870.67 368 877.27 379.18 881.03 389.97 882.56 400.69 880.79 411.18 875.69 421.36 868.77 431.55 859.81 440.93 849.72 449.31 839.78 457.54 829.97 464.51 820.82 469.98 809.78 476.75 794.54 481.99 789.08 482.13 786.26 483.32 783.04 485.37 779.15 489.14 775.42 495.84 770.71 505.08 764.92 516.67 759.06 530.23 752.09 544.25 744.05 556.93 735.95 567.15 726.85 572.8 716.84 572.62 706.83 567.5 696.44 557.53 685.87 544.6 675.34 531.07 664.65 518.09 654.01 507.08 643.47 499.23 633.07 494.2 623.03 491.56 613.29 491.57 604.11 492.44 595.81 493.18 584.79 494.24 570.46 487.07 567.8 478.42 567.22 471.52 568.07 463.33 570.21 454.23 572.35 444.96 575.24 435.1 578.64 424.86 581.14 414.62 583.58 404.49 585.82 394.49 586.95 384.35 588.04 374.08 589.2 363.59 589.66 352.71 590.61 341.36 592.23 329.58 593.73 317.48 596.23 305.14 599.77 293.04 603.56 281.47 608.49 271.05 614.44 262.57 620.72 256 627.92 252.26 635.84 251.7 643.97 253.16 652.66 257.13 661.68 262.85 670.79 268.07 680.1 272.85 689.47 276.16" stroke-dasharray="9 9" transform="rotate(52.52, 711, 400)" opacity="0.67"></path><path d="M688.5 287.56C697.13 287.79 705.57 286.24 713.8 283.39 722.11 278.88 730.33 274.6 738.5 271.36 746.94 268.79 755.56 268.45 764.41 270.49 773.72 274.21 783.43 280.23 793.48 288.07 803.96 297.12 814.65 307.32 825.23 318.11 835.7 329.31 845.49 340.62 854.02 351.72 861.46 362.84 866.88 373.63 869.76 383.95 870.78 394.25 868.96 404.13 864.27 413.42 858.06 422.72 850.01 430.95 840.89 438.03 831.77 445.01 822.54 450.69 813.71 455 805.95 459.16 798.91 462.01 792.64 463.71 785.29 466.44 773.28 473.73 767.27 481.53 763.38 489.69 758.77 499.8 753.33 511.49 747.91 524.34 741.55 537.05 734.26 548.14 726.94 556.88 718.71 561.56 709.63 561.22 700.54 556.72 691.09 547.97 681.45 536.47 671.87 524.11 662.17 511.75 652.55 500.62 643.07 491.8 633.78 485.19 624.91 480.69 616.37 478.61 608.43 477.69 601.37 477.17 592.13 477.38 580.72 472.39 578.97 466.03 578.78 460.93 579.82 454.48 581.98 446.9 584.07 439.17 586.83 430.54 590.06 421.14 592.51 411.73 594.93 402.04 597.22 392.13 598.53 382.15 599.8 371.82 601.13 361.17 601.77 350.34 602.8 339.13 604.33 327.71 605.65 316.34 607.77 305.09 610.76 294.46 613.85 284.67 617.93 276.27 622.91 269.89 628.11 265.27 634.17 263.2 640.96 263.84 647.9 265.99 655.45 270.1 663.44 275.51 671.48 280.26 679.88 284.54 688.5 287.56" stroke-dasharray="1 4" transform="rotate(56.56, 711, 400)" opacity="0.63"></path><path d="M689.87 298.96C697.8 299.29 705.76 298.13 713.68 295.83 721.67 291.97 729.74 288.13 737.89 284.95 746.24 282.03 754.84 280.8 763.65 281.48 772.78 283.41 782.2 287.38 791.79 293.09 801.6 299.92 811.41 308.05 820.89 316.99 830.12 326.51 838.56 336.4 845.74 346.31 851.9 356.39 856.24 366.29 858.37 375.76 858.95 385.28 857.12 394.32 852.84 402.71 847.31 411.1 840.16 418.39 831.98 424.55 823.71 430.67 815.17 435.64 806.79 439.51 799.18 443.43 792.03 446.46 785.45 448.83 779.84 451.76 774.64 454.64 769.73 457.92 765.51 462.62 761.24 468.45 756.76 475.7 752.59 484.76 747.92 495.18 742.66 506.51 737.47 518.35 731.55 529.62 724.88 539.14 718.19 546.49 710.74 550.29 702.56 549.82 694.37 545.89 685.88 538.3 677.26 528.2 668.7 517.11 660.08 505.6 651.59 494.72 643.25 485.41 635.17 477.72 627.55 471.72 620.23 467.77 613.55 465.03 607.72 462.99 595.78 458.92 591.1 444.58 593.81 435.58 595.83 429.1 598.44 421.57 601.49 413.05 603.85 404.53 606.24 395.48 608.56 386.02 610.02 376.55 611.47 366.65 612.97 356.44 613.83 346.25 614.98 335.83 616.53 325.45 617.78 315.39 619.69 305.75 622.29 297 626.59 286.06 639.4 275.33 647.78 276.55 653.69 279.12 660.23 283.2 667.3 288.2 674.39 292.45 681.94 296.24 689.87 298.96" stroke-dasharray="10 10" transform="rotate(60.599999999999994, 711, 400)" opacity="0.59"></path><path d="M693.44 310.37C700.71 310.77 708.15 309.98 715.69 308.21 723.28 305.01 731.06 301.71 738.98 298.78 747.04 295.79 755.35 294.03 763.82 293.73 772.48 294.27 781.31 296.51 790.17 300.29 799.07 305 807.8 311 816.08 317.95 824.02 325.48 831.12 333.59 837.01 341.94 842 350.53 845.38 359.13 846.86 367.48 847.09 375.89 845.28 383.94 841.41 391.44 836.53 398.94 830.23 405.49 822.98 411.11 815.58 416.73 807.8 421.49 800 425.48 792.72 429.66 785.69 433.34 779.04 436.78 773.12 440.85 767.52 445.17 762.19 450.06 757.44 456.15 752.72 463.23 747.92 471.39 743.44 480.77 738.65 490.99 733.46 501.55 728.38 512.15 722.77 521.91 716.61 529.91 710.45 535.97 703.69 538.99 696.36 538.42 689.03 535.03 681.51 528.53 673.93 519.78 666.41 510.01 658.91 499.55 651.6 489.25 644.44 479.91 637.58 471.62 631.21 464.6 622.37 457 608.97 447.69 604.9 444.08 602.47 440.67 603.06 429.95 605.72 422.11 607.63 416.51 610.06 409.89 612.91 402.27 615.17 394.65 617.51 386.43 619.82 377.77 621.41 369.16 623.02 360.15 624.68 350.96 625.75 341.9 627.07 332.82 628.69 324.02 629.99 315.66 631.79 307.94 634.16 301.25 637.92 293.31 648.88 287.37 656.09 289.73 661.16 292.51 666.85 296.39 673.1 300.91 679.37 304.63 686.16 307.94 693.44 310.37" stroke-dasharray="5 0" transform="rotate(64.64, 711, 400)" opacity="0.93"></path><path d="M698.82 321.77C705.45 322.24 712.33 321.76 719.38 320.5 726.47 317.97 733.79 315.27 741.26 312.75 748.83 309.95 756.59 307.99 764.45 307.1 772.39 306.67 780.39 307.59 788.28 309.79 796.11 312.67 803.65 316.74 810.67 321.76 817.3 327.28 823.12 333.5 827.82 340.14 831.76 347.03 834.31 354.12 835.24 361.18 835.19 368.31 833.45 375.28 829.98 381.93 825.72 388.58 820.24 394.57 813.89 399.92 807.37 405.31 800.4 410.16 793.29 414.59 786.5 419.26 779.78 423.77 773.29 428.32 767.32 433.45 761.56 438.97 756.01 445.06 750.92 452.04 745.9 459.79 740.89 468.25 736.16 477.42 731.25 486.97 726.13 496.45 721.12 505.66 715.76 513.89 710.04 520.44 704.33 525.32 698.21 527.65 691.69 527.01 685.17 524.12 678.58 518.64 672.04 511.19 665.54 502.76 659.15 493.48 653.01 484.04 646.99 475.08 641.31 466.7 636.13 459.15 628.99 449.96 618.54 436.76 615.6 431.57 613.95 427.02 615.15 415.94 617.69 408.72 619.46 403.66 621.7 397.76 624.34 391.02 626.48 384.28 628.73 377.04 631.01 369.47 632.68 361.96 634.42 354.21 636.22 346.44 637.5 338.87 638.99 331.46 640.72 324.51 646.32 308.79 659.28 300.28 665.59 303.33 669.98 306.09 674.98 309.64 680.53 313.61 686.08 316.79 692.18 319.63 698.82 321.77" stroke-dasharray="8 3" transform="rotate(68.68, 711, 400)" opacity="0.29"></path><path d="M705.47 333.17C717.45 332.81 730.56 330.13 744.15 326.72 757.92 321.7 772.17 319.67 785.83 321.48 798.97 324.92 810.35 332.22 818.18 342.03 823.56 352.65 823.95 364.43 818.56 376.15 810.7 387.86 799.34 398.36 786.59 407.97 774.51 418.48 762.44 429.77 751.08 442.58 741.04 457.67 731.04 474.54 720.91 491.05 711.19 505.81 700.53 515.14 689.02 515.61 677.5 509.15 666.26 495.52 656.08 478.93 646.26 462.89 638.07 448.36 632.36 436.35 627.44 427.22 625.3 419.07 626.2 410.66 627.31 402.99 630.63 393.44 635.76 381.62 639.28 369.8 643.31 356.97 647.54 344.46 650.05 332.74 653.48 322.76 658.11 316.31 662.06 312.14 667.93 312.46 675.81 317.23 683.55 322.17 693.47 328.22 705.47 333.17" stroke-dasharray="1 5" transform="rotate(72.72, 711, 400)" opacity="0.20"></path><path d="M712.69 344.57C723.36 344.56 735.01 342.89 747 340.57 759.02 336.49 771.21 334.35 782.56 334.99 793.29 336.38 802.26 340.97 808.09 348.08 812.03 355.72 811.91 365.05 807.14 375.29 800.51 385.52 790.88 395.73 779.85 405.96 769.08 416.86 757.95 428.87 747.21 442.01 737.33 456.32 727.52 471.39 717.83 485.22 708.48 497.06 698.69 504.19 688.63 504.21 678.56 498.97 669.16 487.82 660.98 473.75 653.03 459.39 646.68 445.37 642.51 432.96 638.82 422.43 637.45 412.92 638.56 403.86 639.66 395.47 642.62 386.26 647.19 376.02 650.48 365.77 654.39 355.48 658.61 346.16 663.29 334.14 676.4 325.97 686.25 331.31 693.19 335.51 702.01 340.42 712.69 344.57" stroke-dasharray="5 5" transform="rotate(76.76, 711, 400)" opacity="0.55"></path><path d="M719.73 355.98C729.03 356.23 739.06 355.43 749.19 354.17 759.28 351.24 769.26 349.54 778.25 349.77 790.06 351.51 800.08 367.05 795.71 379.53 790.24 388.36 782.28 397.97 773 408.12 763.73 418.67 753.88 430.3 744.15 442.57 734.93 455.2 725.71 467.83 716.76 478.81 708.04 487.91 699.22 493.12 690.56 492.81 681.89 488.67 674.14 479.83 667.68 468.35 661.34 456.14 656.5 443.51 653.52 431.69 650.78 420.89 649.93 410.88 651.07 401.65 652.08 392.91 654.64 384.14 658.61 375.36 661.62 366.58 665.32 358.61 669.41 352.05 674.36 343.83 687.33 340.48 696.36 345.46 702.63 348.77 710.43 352.59 719.73 355.98" stroke-dasharray="8 8" transform="rotate(80.80000000000001, 711, 400)" opacity="0.61"></path><path d="M725.87 367.38C733.73 367.83 742 367.73 750.16 367.4 758.24 365.67 766 364.74 772.77 365.1 781.5 366.17 788.09 377.68 784.29 387.99 779.91 395.45 773.53 404.01 765.99 413.27 758.35 422.69 750.03 432.94 741.63 443.37 733.49 453.69 725.29 463.56 717.37 471.73 709.59 478.35 701.9 481.93 694.61 481.4 687.31 478.25 681.05 471.52 676.01 462.58 671.03 452.8 667.37 442.2 665.26 431.83 663.21 421.84 662.67 412.32 663.7 403.61 664.55 395.18 666.68 387.15 670.04 379.79 674.39 369.4 684.87 356.39 691.1 354.83 695.01 354.67 699.85 356.35 705.62 359.54 711.23 361.92 718 364.71 725.87 367.38" stroke-dasharray="2 1" transform="rotate(84.84, 711, 400)" opacity="0.74"></path><path d="M730.46 378.78C743.18 378.4 756.19 378.23 766.02 380.19 774.57 380.75 777.78 386.8 772.86 398.94 765.68 411.07 753.03 427.34 739.37 443.53 726.06 458.53 712.2 469.56 700.36 470 688.51 463.91 680.6 449.03 677.52 432.52 674.38 416.06 675.65 400.33 681.46 388.39 685.45 376.45 692.24 370.23 700.48 370.17 707.58 369.78 717.74 373.45 730.46 378.78" stroke-dasharray="4 8" transform="rotate(88.88, 711, 400)" opacity="0.24"></path><path d="M733.04 390.18C747.16 391.04 764.43 398.3 761.44 410.1 756.34 419.34 747.21 431.19 737.06 442.22 726.94 452.16 716.24 458.9 707.21 458.6 698.18 454.65 692.33 444.62 690.11 432.88 687.69 420.67 688.54 408.49 692.89 399.39 696.17 390.28 701.92 385.77 708.83 385.57 715.1 384.71 723.44 386.61 733.04 390.18" stroke-dasharray="10 4" transform="rotate(92.92, 711, 400)" opacity="0.63"></path><path d="M733.33 401.59C746.13 401.19 754.7 406.66 750.01 419.17 743.17 431.67 726.71 446.77 714.46 447.2 702.2 441.29 698.16 422.85 704.31 410.51 708.53 398.16 720.52 396.06 733.33 401.59" stroke-dasharray="3 5" transform="rotate(96.96, 711, 400)" opacity="0.22"></path></g></svg>